# xmcd
# 
# Track frame offsets:
#     150
#     19860
#     35197
#     53345
#     67744
#     84332
#     102005
#     118372
#     136945
#     153845
#     181077
#     198837
#     215464
# 
# Disc length: 3130
# 
# Revision: 2
# Processed by: cddbd v1.5.2PL0 Copyright (c) Steve Scherf et al.
# Submitted via: fre:ac v1.0.31
# 
DISCID=a10c380d
DTITLE=Tommy Castro - The Devil You Know
DYEAR=2014
DGENRE=Blues
TTITLE0=The Devil You Know
TTITLE1=Second Mind
TTITLE2=I'm Tired
TTITLE3=Center Of Attention
TTITLE4=The Whale Have Swallowed Me
TTITLE5=When I Cross The Mississippi
TTITLE6=Mojo Hannah
TTITLE7=Two Steps Forward
TTITLE8=She Wanted To Give It To Me
TTITLE9=Keep On Smilin'
TTITLE10=Medicine Woman
TTITLE11=That's All I Got
TTITLE12=Greedy
EXTD=
EXTT0=
EXTT1=
EXTT2=
EXTT3=
EXTT4=
EXTT5=
EXTT6=
EXTT7=
EXTT8=
EXTT9=
EXTT10=
EXTT11=
EXTT12=
PLAYORDER=
